<?xml version="1.0" encoding="UTF-8" standalone="no"?>
<!-- Created with Inkscape (http://www.inkscape.org/) -->

<svg
   xmlns:dc="http://purl.org/dc/elements/1.1/"
   xmlns:cc="http://creativecommons.org/ns#"
   xmlns:rdf="http://www.w3.org/1999/02/22-rdf-syntax-ns#"
   xmlns:svg="http://www.w3.org/2000/svg"
   xmlns="http://www.w3.org/2000/svg"
   xmlns:sodipodi="http://sodipodi.sourceforge.net/DTD/sodipodi-0.dtd"
   xmlns:inkscape="http://www.inkscape.org/namespaces/inkscape"
   width="210mm"
   height="297mm"
   viewBox="0 0 744.09448819 1052.3622047"
   id="svg2"
   version="1.1"
   inkscape:version="0.91 r13725"
   inkscape:export-filename="C:\Users\pelit4\Documents\codeplay-2.0\controlsuggestion.png"
   inkscape:export-xdpi="90"
   inkscape:export-ydpi="90"
   sodipodi:docname="controllers.svg">
  <defs
     id="defs4" />
  <sodipodi:namedview
     id="base"
     pagecolor="#ffffff"
     bordercolor="#666666"
     borderopacity="1.0"
     inkscape:pageopacity="0.0"
     inkscape:pageshadow="2"
     inkscape:zoom="0.5"
     inkscape:cx="244.88204"
     inkscape:cy="524.9051"
     inkscape:document-units="px"
     inkscape:current-layer="layer1"
     showgrid="true"
     inkscape:window-width="1600"
     inkscape:window-height="837"
     inkscape:window-x="-8"
     inkscape:window-y="-8"
     inkscape:window-maximized="1">
    <inkscape:grid
       type="xygrid"
       id="grid4136" />
  </sodipodi:namedview>
  <metadata
     id="metadata7">
    <rdf:RDF>
      <cc:Work
         rdf:about="">
        <dc:format>image/svg+xml</dc:format>
        <dc:type
           rdf:resource="http://purl.org/dc/dcmitype/StillImage" />
        <dc:title></dc:title>
      </cc:Work>
    </rdf:RDF>
  </metadata>
  <g
     inkscape:label="Layer 1"
     inkscape:groupmode="layer"
     id="layer1">
    <g
       id="g4341"
       transform="matrix(0.8677609,0,0,0.8677609,-8.8430406,257.43597)">
      <circle
         style="opacity:1;fill:#00adee;fill-opacity:1;stroke:none;stroke-width:1;stroke-linejoin:miter;stroke-miterlimit:4;stroke-dasharray:none;stroke-opacity:1"
         id="circle4157"
         cx="130.02101"
         cy="322.2796"
         r="70" />
      <path
         inkscape:connector-curvature="0"
         id="circle4257"
         d="m 143.23409,275.48242 -35.82031,31.88672 -22.037106,0 0,30 21.884766,0 35.97265,32.02148 0,-93.9082 z m 5.12305,10.94141 0,3.75781 a 34.644661,34.644661 0 0 1 21.66602,32.09766 34.644661,34.644661 0 0 1 -21.66602,32.09961 l 0,3.77148 a 38.180195,38.180195 0 0 0 25.20117,-35.87109 38.180195,38.180195 0 0 0 -25.20117,-35.85547 z m 0,8.74023 0,3.95508 a 26.56344,26.56344 0 0 1 13.58398,23.16016 26.56344,26.56344 0 0 1 -13.58398,23.14062 l 0,3.98633 a 30.098974,30.098974 0 0 0 17.11914,-27.12695 30.098974,30.098974 0 0 0 -17.11914,-27.11524 z m 0,8.72656 0,5.25196 a 18.48222,18.48222 0 0 1 5.50391,13.13672 18.48222,18.48222 0 0 1 -5.50391,13.14843 l 0,5.22461 a 22.522831,22.522831 0 0 0 9.54297,-18.37304 22.522831,22.522831 0 0 0 -9.54297,-18.38868 z"
         style="opacity:1;fill:#ffffff;fill-opacity:1;stroke:none;stroke-width:1;stroke-linejoin:miter;stroke-miterlimit:4;stroke-dasharray:none;stroke-opacity:1" />
    </g>
    <g
       id="g4331"
       transform="matrix(0.8677609,0,0,0.8677609,-205.18924,153.73909)">
      <circle
         style="opacity:1;fill:#00adee;fill-opacity:1;stroke:none;stroke-width:1;stroke-linejoin:miter;stroke-miterlimit:4;stroke-dasharray:none;stroke-opacity:1"
         id="circle4170"
         cx="362.14285"
         cy="102.36219"
         r="70" />
      <rect
         y="57.362206"
         x="330"
         height="90"
         width="25"
         id="rect4172"
         style="opacity:1;fill:#ffffff;fill-opacity:1;stroke:none;stroke-width:1;stroke-linejoin:miter;stroke-miterlimit:4;stroke-dasharray:none;stroke-opacity:1" />
      <rect
         style="opacity:1;fill:#ffffff;fill-opacity:1;stroke:none;stroke-width:1;stroke-linejoin:miter;stroke-miterlimit:4;stroke-dasharray:none;stroke-opacity:1"
         id="rect4174"
         width="25"
         height="90"
         x="330"
         y="57.362206" />
      <rect
         y="57.362206"
         x="369.97833"
         height="90"
         width="25"
         id="rect4178"
         style="opacity:1;fill:#ffffff;fill-opacity:1;stroke:none;stroke-width:1;stroke-linejoin:miter;stroke-miterlimit:4;stroke-dasharray:none;stroke-opacity:1" />
    </g>
    <g
       id="g4337"
       transform="matrix(0.8677609,0,0,0.8677609,-405.40977,-0.67745709)">
      <circle
         r="70"
         cy="107.11709"
         cx="590.65057"
         id="circle4155"
         style="opacity:1;fill:#00adee;fill-opacity:1;stroke:none;stroke-width:1;stroke-linejoin:miter;stroke-miterlimit:4;stroke-dasharray:none;stroke-opacity:1" />
      <path
         inkscape:connector-curvature="0"
         id="rect4180"
         d="m 569.99999,57.351284 0,100.020646 66.8337,-50.01031 -66.8337,-50.010336 z"
         style="opacity:1;fill:#ffffff;fill-opacity:1;stroke:none;stroke-width:1;stroke-linejoin:miter;stroke-miterlimit:4;stroke-dasharray:none;stroke-opacity:1" />
    </g>
    <g
       id="g4345"
       transform="matrix(0.8677609,0,0,0.8677609,-212.75525,405.25038)">
      <circle
         r="70"
         cy="321.26944"
         cx="364.8815"
         id="circle4200"
         style="opacity:1;fill:#00adee;fill-opacity:1;stroke:none;stroke-width:1;stroke-linejoin:miter;stroke-miterlimit:4;stroke-dasharray:none;stroke-opacity:1" />
      <path
         inkscape:connector-curvature="0"
         id="path4202"
         d="m 327.37438,272.73095 -3.87695,3.87696 27.82031,27.82031 4.10156,-3.65235 -28.04492,-28.04492 z m 28.04492,28.04492 28.47071,28.47266 0,-53.8164 -28.47071,25.34374 z m 28.47071,28.47266 0,7.75391 24.90429,24.90429 3.87696,-3.87695 -28.78125,-28.78125 z m 0,7.75391 -32.57227,-32.57422 -3.24805,2.89062 -22.0371,0 0,30 21.88476,0 35.97266,32.02149 0,-32.33789 z"
         style="opacity:1;fill:#ffffff;fill-opacity:1;stroke:none;stroke-width:1;stroke-linejoin:miter;stroke-miterlimit:4;stroke-dasharray:none;stroke-opacity:1" />
    </g>
    <g
       id="g4326"
       transform="matrix(0.8677609,0,0,0.8677609,-6.4887755,300.98185)">
      <g
         transform="translate(-10.101525,1.0101525)"
         id="g4316">
        <circle
           style="opacity:1;fill:#00adee;fill-opacity:1;stroke:none;stroke-width:1;stroke-linejoin:miter;stroke-miterlimit:4;stroke-dasharray:none;stroke-opacity:1"
           id="path4140"
           cx="140"
           cy="102.36219"
           r="70" />
        <path
           inkscape:connector-curvature="0"
           style="opacity:1;fill:#ffffff;fill-opacity:1;stroke:none;stroke-width:1;stroke-linejoin:miter;stroke-miterlimit:4;stroke-dasharray:none;stroke-opacity:1"
           d="m 91.306641,102.36133 a 48.75,48.75 0 0 0 48.746089,48.65429 48.75,48.75 0 0 0 48.7461,-48.65429 l -97.492189,0 z"
           id="circle4161" />
      </g>
    </g>
    <g
       id="g4448"
       transform="matrix(0.8677609,0,0,0.8677609,-395.83243,556.88334)">
      <rect
         y="252.3622"
         x="505.45432"
         height="125.05075"
         width="169.49747"
         id="rect4349"
         style="opacity:1;fill:#00adee;fill-opacity:1;stroke:none;stroke-width:1;stroke-linejoin:miter;stroke-miterlimit:4;stroke-dasharray:none;stroke-opacity:1" />
      <g
         transform="translate(-4.75,0)"
         id="g4385">
        <path
           inkscape:connector-curvature="0"
           style="opacity:1;fill:#ffffff;fill-opacity:1;stroke:none;stroke-width:1;stroke-linejoin:miter;stroke-miterlimit:4;stroke-dasharray:none;stroke-opacity:1"
           d="m 524.01953,262.39844 c -2.21953,0 -4.00586,1.78778 -4.00586,4.00781 l 0,30.95508 4.98633,0 0,-28.03125 c 0,-1.09057 0.89116,-1.96875 1.99805,-1.96875 l 28.00195,0 0,-4.96289 -30.98047,0 z"
           id="rect4351" />
        <ellipse
           ry="2.4761112"
           rx="2.4958277"
           cy="297.34274"
           cx="522.50787"
           id="ellipse4365"
           style="opacity:1;fill:#ffffff;fill-opacity:1;stroke:none;stroke-width:1;stroke-linejoin:miter;stroke-miterlimit:4;stroke-dasharray:none;stroke-opacity:1" />
        <ellipse
           style="opacity:1;fill:#ffffff;fill-opacity:1;stroke:none;stroke-width:1;stroke-linejoin:miter;stroke-miterlimit:4;stroke-dasharray:none;stroke-opacity:1"
           id="ellipse4367"
           cx="554.96924"
           cy="264.88077"
           rx="2.498925"
           ry="2.4839237" />
      </g>
      <g
         transform="matrix(0,-1,1,0,252.77871,887.34795)"
         id="g4390">
        <path
           inkscape:connector-curvature="0"
           id="path4392"
           d="m 524.01953,262.39844 c -2.21953,0 -4.00586,1.78778 -4.00586,4.00781 l 0,30.95508 4.98633,0 0,-28.03125 c 0,-1.09057 0.89116,-1.96875 1.99805,-1.96875 l 28.00195,0 0,-4.96289 -30.98047,0 z"
           style="opacity:1;fill:#ffffff;fill-opacity:1;stroke:none;stroke-width:1;stroke-linejoin:miter;stroke-miterlimit:4;stroke-dasharray:none;stroke-opacity:1" />
        <ellipse
           style="opacity:1;fill:#ffffff;fill-opacity:1;stroke:none;stroke-width:1;stroke-linejoin:miter;stroke-miterlimit:4;stroke-dasharray:none;stroke-opacity:1"
           id="ellipse4394"
           cx="522.50787"
           cy="297.34274"
           rx="2.4958277"
           ry="2.4761112" />
        <ellipse
           ry="2.4839237"
           rx="2.498925"
           cy="264.88077"
           cx="554.96924"
           id="ellipse4396"
           style="opacity:1;fill:#ffffff;fill-opacity:1;stroke:none;stroke-width:1;stroke-linejoin:miter;stroke-miterlimit:4;stroke-dasharray:none;stroke-opacity:1" />
      </g>
      <g
         id="g4398"
         transform="matrix(-1,0,0,-1,1184.9221,629.80408)">
        <path
           style="opacity:1;fill:#ffffff;fill-opacity:1;stroke:none;stroke-width:1;stroke-linejoin:miter;stroke-miterlimit:4;stroke-dasharray:none;stroke-opacity:1"
           d="m 524.01953,262.39844 c -2.21953,0 -4.00586,1.78778 -4.00586,4.00781 l 0,30.95508 4.98633,0 0,-28.03125 c 0,-1.09057 0.89116,-1.96875 1.99805,-1.96875 l 28.00195,0 0,-4.96289 -30.98047,0 z"
           id="path4400"
           inkscape:connector-curvature="0" />
        <ellipse
           ry="2.4761112"
           rx="2.4958277"
           cy="297.34274"
           cx="522.50787"
           id="ellipse4402"
           style="opacity:1;fill:#ffffff;fill-opacity:1;stroke:none;stroke-width:1;stroke-linejoin:miter;stroke-miterlimit:4;stroke-dasharray:none;stroke-opacity:1" />
        <ellipse
           style="opacity:1;fill:#ffffff;fill-opacity:1;stroke:none;stroke-width:1;stroke-linejoin:miter;stroke-miterlimit:4;stroke-dasharray:none;stroke-opacity:1"
           id="ellipse4404"
           cx="554.96924"
           cy="264.88077"
           rx="2.498925"
           ry="2.4839237" />
      </g>
      <g
         transform="matrix(0,1,-1,0,927.39389,-257.63225)"
         id="g4406">
        <path
           inkscape:connector-curvature="0"
           id="path4408"
           d="m 524.01953,262.39844 c -2.21953,0 -4.00586,1.78778 -4.00586,4.00781 l 0,30.95508 4.98633,0 0,-28.03125 c 0,-1.09057 0.89116,-1.96875 1.99805,-1.96875 l 28.00195,0 0,-4.96289 -30.98047,0 z"
           style="opacity:1;fill:#ffffff;fill-opacity:1;stroke:none;stroke-width:1;stroke-linejoin:miter;stroke-miterlimit:4;stroke-dasharray:none;stroke-opacity:1" />
        <ellipse
           style="opacity:1;fill:#ffffff;fill-opacity:1;stroke:none;stroke-width:1;stroke-linejoin:miter;stroke-miterlimit:4;stroke-dasharray:none;stroke-opacity:1"
           id="ellipse4410"
           cx="522.50787"
           cy="297.34274"
           rx="2.4958277"
           ry="2.4761112" />
        <ellipse
           ry="2.4839237"
           rx="2.498925"
           cy="264.88077"
           cx="554.96924"
           id="ellipse4412"
           style="opacity:1;fill:#ffffff;fill-opacity:1;stroke:none;stroke-width:1;stroke-linejoin:miter;stroke-miterlimit:4;stroke-dasharray:none;stroke-opacity:1" />
      </g>
    </g>
    <g
       id="g4467"
       transform="matrix(0.8677609,0,0,0.8677609,-397.05963,570.32086)">
      <rect
         style="opacity:1;fill:#00adee;fill-opacity:1;stroke:none;stroke-width:1;stroke-linejoin:miter;stroke-miterlimit:4;stroke-dasharray:none;stroke-opacity:1"
         id="rect4414"
         width="169.49747"
         height="125.05075"
         x="505.2561"
         y="404.89383" />
      <g
         id="g4416"
         transform="translate(74.966306,210.0013)">
        <path
           id="path4418"
           d="m 524.01953,262.39844 c -2.21953,0 -4.00586,1.78778 -4.00586,4.00781 l 0,30.95508 4.98633,0 0,-28.03125 c 0,-1.09057 0.89116,-1.96875 1.99805,-1.96875 l 28.00195,0 0,-4.96289 -30.98047,0 z"
           style="opacity:1;fill:#ffffff;fill-opacity:1;stroke:none;stroke-width:1;stroke-linejoin:miter;stroke-miterlimit:4;stroke-dasharray:none;stroke-opacity:1"
           inkscape:connector-curvature="0" />
        <ellipse
           style="opacity:1;fill:#ffffff;fill-opacity:1;stroke:none;stroke-width:1;stroke-linejoin:miter;stroke-miterlimit:4;stroke-dasharray:none;stroke-opacity:1"
           id="ellipse4420"
           cx="522.50787"
           cy="297.34274"
           rx="2.4958277"
           ry="2.4761112" />
        <ellipse
           ry="2.4839237"
           rx="2.498925"
           cy="264.88077"
           cx="554.96924"
           id="ellipse4422"
           style="opacity:1;fill:#ffffff;fill-opacity:1;stroke:none;stroke-width:1;stroke-linejoin:miter;stroke-miterlimit:4;stroke-dasharray:none;stroke-opacity:1" />
      </g>
      <g
         id="g4424"
         transform="matrix(0,-1,1,0,332.65586,982.42618)">
        <path
           style="opacity:1;fill:#ffffff;fill-opacity:1;stroke:none;stroke-width:1;stroke-linejoin:miter;stroke-miterlimit:4;stroke-dasharray:none;stroke-opacity:1"
           d="m 524.01953,262.39844 c -2.21953,0 -4.00586,1.78778 -4.00586,4.00781 l 0,30.95508 4.98633,0 0,-28.03125 c 0,-1.09057 0.89116,-1.96875 1.99805,-1.96875 l 28.00195,0 0,-4.96289 -30.98047,0 z"
           id="path4426"
           inkscape:connector-curvature="0" />
        <ellipse
           ry="2.4761112"
           rx="2.4958277"
           cy="297.34274"
           cx="522.50787"
           id="ellipse4428"
           style="opacity:1;fill:#ffffff;fill-opacity:1;stroke:none;stroke-width:1;stroke-linejoin:miter;stroke-miterlimit:4;stroke-dasharray:none;stroke-opacity:1" />
        <ellipse
           style="opacity:1;fill:#ffffff;fill-opacity:1;stroke:none;stroke-width:1;stroke-linejoin:miter;stroke-miterlimit:4;stroke-dasharray:none;stroke-opacity:1"
           id="ellipse4430"
           cx="554.96924"
           cy="264.88077"
           rx="2.498925"
           ry="2.4839237" />
      </g>
      <g
         transform="matrix(-1,0,0,-1,1105.0134,724.70367)"
         id="g4432">
        <path
           inkscape:connector-curvature="0"
           id="path4434"
           d="m 524.01953,262.39844 c -2.21953,0 -4.00586,1.78778 -4.00586,4.00781 l 0,30.95508 4.98633,0 0,-28.03125 c 0,-1.09057 0.89116,-1.96875 1.99805,-1.96875 l 28.00195,0 0,-4.96289 -30.98047,0 z"
           style="opacity:1;fill:#ffffff;fill-opacity:1;stroke:none;stroke-width:1;stroke-linejoin:miter;stroke-miterlimit:4;stroke-dasharray:none;stroke-opacity:1" />
        <ellipse
           style="opacity:1;fill:#ffffff;fill-opacity:1;stroke:none;stroke-width:1;stroke-linejoin:miter;stroke-miterlimit:4;stroke-dasharray:none;stroke-opacity:1"
           id="ellipse4436"
           cx="522.50787"
           cy="297.34274"
           rx="2.4958277"
           ry="2.4761112" />
        <ellipse
           ry="2.4839237"
           rx="2.498925"
           cy="264.88077"
           cx="554.96924"
           id="ellipse4438"
           style="opacity:1;fill:#ffffff;fill-opacity:1;stroke:none;stroke-width:1;stroke-linejoin:miter;stroke-miterlimit:4;stroke-dasharray:none;stroke-opacity:1" />
      </g>
      <g
         id="g4440"
         transform="matrix(0,1,-1,0,847.47448,-47.557727)">
        <path
           style="opacity:1;fill:#ffffff;fill-opacity:1;stroke:none;stroke-width:1;stroke-linejoin:miter;stroke-miterlimit:4;stroke-dasharray:none;stroke-opacity:1"
           d="m 524.01953,262.39844 c -2.21953,0 -4.00586,1.78778 -4.00586,4.00781 l 0,30.95508 4.98633,0 0,-28.03125 c 0,-1.09057 0.89116,-1.96875 1.99805,-1.96875 l 28.00195,0 0,-4.96289 -30.98047,0 z"
           id="path4442"
           inkscape:connector-curvature="0" />
        <ellipse
           ry="2.4761112"
           rx="2.4958277"
           cy="297.34274"
           cx="522.50787"
           id="ellipse4444"
           style="opacity:1;fill:#ffffff;fill-opacity:1;stroke:none;stroke-width:1;stroke-linejoin:miter;stroke-miterlimit:4;stroke-dasharray:none;stroke-opacity:1" />
        <ellipse
           style="opacity:1;fill:#ffffff;fill-opacity:1;stroke:none;stroke-width:1;stroke-linejoin:miter;stroke-miterlimit:4;stroke-dasharray:none;stroke-opacity:1"
           id="ellipse4446"
           cx="554.96924"
           cy="264.88077"
           rx="2.498925"
           ry="2.4839237" />
      </g>
    </g>
    <flowRoot
       xml:space="preserve"
       id="flowRoot4514"
       style="fill:black;stroke:none;stroke-opacity:1;stroke-width:1px;stroke-linejoin:miter;stroke-linecap:butt;fill-opacity:1;font-family:sans-serif;font-style:normal;font-weight:normal;font-size:40px;line-height:125%;letter-spacing:0px;word-spacing:0px"><flowRegion
         id="flowRegion4516"><rect
           id="rect4518"
           width="200"
           height="120"
           x="220"
           y="512.36218" /></flowRegion><flowPara
         id="flowPara4520"></flowPara></flowRoot>    <flowRoot
       xml:space="preserve"
       id="flowRoot4554"
       style="fill:black;stroke:none;stroke-opacity:1;stroke-width:1px;stroke-linejoin:miter;stroke-linecap:butt;fill-opacity:1;font-family:sans-serif;font-style:normal;font-weight:normal;font-size:40px;line-height:125%;letter-spacing:0px;word-spacing:0px"><flowRegion
         id="flowRegion4556"><rect
           id="rect4558"
           width="340"
           height="80"
           x="380"
           y="12.362205" /></flowRegion><flowPara
         id="flowPara4560"></flowPara></flowRoot>  </g>
</svg>
