<?xml version="1.0" encoding="UTF-8" standalone="no"?>
<!-- Created with Inkscape (http://www.inkscape.org/) -->

<svg
   xmlns:dc="http://purl.org/dc/elements/1.1/"
   xmlns:cc="http://creativecommons.org/ns#"
   xmlns:rdf="http://www.w3.org/1999/02/22-rdf-syntax-ns#"
   xmlns:svg="http://www.w3.org/2000/svg"
   xmlns="http://www.w3.org/2000/svg"
   xmlns:sodipodi="http://sodipodi.sourceforge.net/DTD/sodipodi-0.dtd"
   xmlns:inkscape="http://www.inkscape.org/namespaces/inkscape"
   width="210mm"
   height="297mm"
   viewBox="0 0 744.09448819 1052.3622047"
   id="svg2"
   version="1.1"
   inkscape:version="0.91 r13725"
   inkscape:export-filename="C:\Users\pelit4\Documents\codeplay-2.0\bilder\thumbxs.png"
   inkscape:export-xdpi="90"
   inkscape:export-ydpi="90"
   sodipodi:docname="controllers.svg">
  <defs
     id="defs4" />
  <sodipodi:namedview
     id="base"
     pagecolor="#ffffff"
     bordercolor="#666666"
     borderopacity="1.0"
     inkscape:pageopacity="0.0"
     inkscape:pageshadow="2"
     inkscape:zoom="4"
     inkscape:cx="107.22667"
     inkscape:cy="224.90635"
     inkscape:document-units="px"
     inkscape:current-layer="layer1"
     showgrid="true"
     inkscape:window-width="1600"
     inkscape:window-height="837"
     inkscape:window-x="-8"
     inkscape:window-y="-8"
     inkscape:window-maximized="1">
    <inkscape:grid
       type="xygrid"
       id="grid4136" />
  </sodipodi:namedview>
  <metadata
     id="metadata7">
    <rdf:RDF>
      <cc:Work
         rdf:about="">
        <dc:format>image/svg+xml</dc:format>
        <dc:type
           rdf:resource="http://purl.org/dc/dcmitype/StillImage" />
        <dc:title />
      </cc:Work>
    </rdf:RDF>
  </metadata>
  <g
     inkscape:label="Layer 1"
     inkscape:groupmode="layer"
     id="layer1">
    <g
       id="g4331"
       transform="matrix(0.8677609,0,0,0.8677609,-205.18924,153.73909)">
      <circle
         style="opacity:1;fill:#00adee;fill-opacity:1;stroke:none;stroke-width:1;stroke-linejoin:miter;stroke-miterlimit:4;stroke-dasharray:none;stroke-opacity:1"
         id="circle4170"
         cx="362.14285"
         cy="102.36219"
         r="70" />
      <rect
         y="57.362206"
         x="330"
         height="90"
         width="25"
         id="rect4172"
         style="opacity:1;fill:#ffffff;fill-opacity:1;stroke:none;stroke-width:1;stroke-linejoin:miter;stroke-miterlimit:4;stroke-dasharray:none;stroke-opacity:1" />
      <rect
         style="opacity:1;fill:#ffffff;fill-opacity:1;stroke:none;stroke-width:1;stroke-linejoin:miter;stroke-miterlimit:4;stroke-dasharray:none;stroke-opacity:1"
         id="rect4174"
         width="25"
         height="90"
         x="330"
         y="57.362206" />
      <rect
         y="57.362206"
         x="369.97833"
         height="90"
         width="25"
         id="rect4178"
         style="opacity:1;fill:#ffffff;fill-opacity:1;stroke:none;stroke-width:1;stroke-linejoin:miter;stroke-miterlimit:4;stroke-dasharray:none;stroke-opacity:1" />
    </g>
    <g
       id="g4337"
       transform="matrix(0.8677609,0,0,0.8677609,-405.40977,-0.67745709)">
      <circle
         r="70"
         cy="107.11709"
         cx="590.65057"
         id="circle4155"
         style="opacity:1;fill:#00adee;fill-opacity:1;stroke:none;stroke-width:1;stroke-linejoin:miter;stroke-miterlimit:4;stroke-dasharray:none;stroke-opacity:1" />
      <path
         inkscape:connector-curvature="0"
         id="rect4180"
         d="m 569.99999,57.351284 0,100.020646 66.8337,-50.01031 -66.8337,-50.010336 z"
         style="opacity:1;fill:#ffffff;fill-opacity:1;stroke:none;stroke-width:1;stroke-linejoin:miter;stroke-miterlimit:4;stroke-dasharray:none;stroke-opacity:1" />
    </g>
    <circle
       style="opacity:1;fill:#00adee;fill-opacity:1;stroke:none;stroke-width:1;stroke-linejoin:miter;stroke-miterlimit:4;stroke-dasharray:none;stroke-opacity:1"
       id="circle4200"
       cx="103.87465"
       cy="684.03546"
       r="60.743263" />
    <g
       id="g4326"
       transform="matrix(0.8677609,0,0,0.8677609,-6.4887755,300.98185)"
       inkscape:export-xdpi="90"
       inkscape:export-ydpi="90">
      <g
         transform="translate(-10.101525,1.0101525)"
         id="g4316">
        <circle
           style="opacity:1;fill:#00adee;fill-opacity:1;stroke:none;stroke-width:1;stroke-linejoin:miter;stroke-miterlimit:4;stroke-dasharray:none;stroke-opacity:1"
           id="path4140"
           cx="140"
           cy="102.36219"
           r="70" />
        <path
           inkscape:connector-curvature="0"
           style="opacity:1;fill:#ffffff;fill-opacity:1;stroke:none;stroke-width:1;stroke-linejoin:miter;stroke-miterlimit:4;stroke-dasharray:none;stroke-opacity:1"
           d="m 91.306641,102.36133 a 48.75,48.75 0 0 0 48.746089,48.65429 48.75,48.75 0 0 0 48.7461,-48.65429 l -97.492189,0 z"
           id="circle4161" />
      </g>
    </g>
    <g
       id="g4448"
       transform="matrix(0.8677609,0,0,0.8677609,-395.83243,556.88334)">
      <rect
         y="252.3622"
         x="505.45432"
         height="125.05075"
         width="169.49747"
         id="rect4349"
         style="opacity:1;fill:#00adee;fill-opacity:1;stroke:none;stroke-width:1;stroke-linejoin:miter;stroke-miterlimit:4;stroke-dasharray:none;stroke-opacity:1" />
      <g
         transform="translate(-4.75,0)"
         id="g4385">
        <path
           inkscape:connector-curvature="0"
           style="opacity:1;fill:#ffffff;fill-opacity:1;stroke:none;stroke-width:1;stroke-linejoin:miter;stroke-miterlimit:4;stroke-dasharray:none;stroke-opacity:1"
           d="m 524.01953,262.39844 c -2.21953,0 -4.00586,1.78778 -4.00586,4.00781 l 0,30.95508 4.98633,0 0,-28.03125 c 0,-1.09057 0.89116,-1.96875 1.99805,-1.96875 l 28.00195,0 0,-4.96289 -30.98047,0 z"
           id="rect4351" />
        <ellipse
           ry="2.4761112"
           rx="2.4958277"
           cy="297.34274"
           cx="522.50787"
           id="ellipse4365"
           style="opacity:1;fill:#ffffff;fill-opacity:1;stroke:none;stroke-width:1;stroke-linejoin:miter;stroke-miterlimit:4;stroke-dasharray:none;stroke-opacity:1" />
        <ellipse
           style="opacity:1;fill:#ffffff;fill-opacity:1;stroke:none;stroke-width:1;stroke-linejoin:miter;stroke-miterlimit:4;stroke-dasharray:none;stroke-opacity:1"
           id="ellipse4367"
           cx="554.96924"
           cy="264.88077"
           rx="2.498925"
           ry="2.4839237" />
      </g>
      <g
         transform="matrix(0,-1,1,0,252.77871,887.34795)"
         id="g4390">
        <path
           inkscape:connector-curvature="0"
           id="path4392"
           d="m 524.01953,262.39844 c -2.21953,0 -4.00586,1.78778 -4.00586,4.00781 l 0,30.95508 4.98633,0 0,-28.03125 c 0,-1.09057 0.89116,-1.96875 1.99805,-1.96875 l 28.00195,0 0,-4.96289 -30.98047,0 z"
           style="opacity:1;fill:#ffffff;fill-opacity:1;stroke:none;stroke-width:1;stroke-linejoin:miter;stroke-miterlimit:4;stroke-dasharray:none;stroke-opacity:1" />
        <ellipse
           style="opacity:1;fill:#ffffff;fill-opacity:1;stroke:none;stroke-width:1;stroke-linejoin:miter;stroke-miterlimit:4;stroke-dasharray:none;stroke-opacity:1"
           id="ellipse4394"
           cx="522.50787"
           cy="297.34274"
           rx="2.4958277"
           ry="2.4761112" />
        <ellipse
           ry="2.4839237"
           rx="2.498925"
           cy="264.88077"
           cx="554.96924"
           id="ellipse4396"
           style="opacity:1;fill:#ffffff;fill-opacity:1;stroke:none;stroke-width:1;stroke-linejoin:miter;stroke-miterlimit:4;stroke-dasharray:none;stroke-opacity:1" />
      </g>
      <g
         id="g4398"
         transform="matrix(-1,0,0,-1,1184.9221,629.80408)">
        <path
           style="opacity:1;fill:#ffffff;fill-opacity:1;stroke:none;stroke-width:1;stroke-linejoin:miter;stroke-miterlimit:4;stroke-dasharray:none;stroke-opacity:1"
           d="m 524.01953,262.39844 c -2.21953,0 -4.00586,1.78778 -4.00586,4.00781 l 0,30.95508 4.98633,0 0,-28.03125 c 0,-1.09057 0.89116,-1.96875 1.99805,-1.96875 l 28.00195,0 0,-4.96289 -30.98047,0 z"
           id="path4400"
           inkscape:connector-curvature="0" />
        <ellipse
           ry="2.4761112"
           rx="2.4958277"
           cy="297.34274"
           cx="522.50787"
           id="ellipse4402"
           style="opacity:1;fill:#ffffff;fill-opacity:1;stroke:none;stroke-width:1;stroke-linejoin:miter;stroke-miterlimit:4;stroke-dasharray:none;stroke-opacity:1" />
        <ellipse
           style="opacity:1;fill:#ffffff;fill-opacity:1;stroke:none;stroke-width:1;stroke-linejoin:miter;stroke-miterlimit:4;stroke-dasharray:none;stroke-opacity:1"
           id="ellipse4404"
           cx="554.96924"
           cy="264.88077"
           rx="2.498925"
           ry="2.4839237" />
      </g>
      <g
         transform="matrix(0,1,-1,0,927.39389,-257.63225)"
         id="g4406">
        <path
           inkscape:connector-curvature="0"
           id="path4408"
           d="m 524.01953,262.39844 c -2.21953,0 -4.00586,1.78778 -4.00586,4.00781 l 0,30.95508 4.98633,0 0,-28.03125 c 0,-1.09057 0.89116,-1.96875 1.99805,-1.96875 l 28.00195,0 0,-4.96289 -30.98047,0 z"
           style="opacity:1;fill:#ffffff;fill-opacity:1;stroke:none;stroke-width:1;stroke-linejoin:miter;stroke-miterlimit:4;stroke-dasharray:none;stroke-opacity:1" />
        <ellipse
           style="opacity:1;fill:#ffffff;fill-opacity:1;stroke:none;stroke-width:1;stroke-linejoin:miter;stroke-miterlimit:4;stroke-dasharray:none;stroke-opacity:1"
           id="ellipse4410"
           cx="522.50787"
           cy="297.34274"
           rx="2.4958277"
           ry="2.4761112" />
        <ellipse
           ry="2.4839237"
           rx="2.498925"
           cy="264.88077"
           cx="554.96924"
           id="ellipse4412"
           style="opacity:1;fill:#ffffff;fill-opacity:1;stroke:none;stroke-width:1;stroke-linejoin:miter;stroke-miterlimit:4;stroke-dasharray:none;stroke-opacity:1" />
      </g>
    </g>
    <g
       id="g4467"
       transform="matrix(0.8677609,0,0,0.8677609,-397.05963,570.32086)">
      <rect
         style="opacity:1;fill:#00adee;fill-opacity:1;stroke:none;stroke-width:1;stroke-linejoin:miter;stroke-miterlimit:4;stroke-dasharray:none;stroke-opacity:1"
         id="rect4414"
         width="169.49747"
         height="125.05075"
         x="505.2561"
         y="404.89383" />
      <g
         id="g4416"
         transform="translate(74.966306,210.0013)">
        <path
           id="path4418"
           d="m 524.01953,262.39844 c -2.21953,0 -4.00586,1.78778 -4.00586,4.00781 l 0,30.95508 4.98633,0 0,-28.03125 c 0,-1.09057 0.89116,-1.96875 1.99805,-1.96875 l 28.00195,0 0,-4.96289 -30.98047,0 z"
           style="opacity:1;fill:#ffffff;fill-opacity:1;stroke:none;stroke-width:1;stroke-linejoin:miter;stroke-miterlimit:4;stroke-dasharray:none;stroke-opacity:1"
           inkscape:connector-curvature="0" />
        <ellipse
           style="opacity:1;fill:#ffffff;fill-opacity:1;stroke:none;stroke-width:1;stroke-linejoin:miter;stroke-miterlimit:4;stroke-dasharray:none;stroke-opacity:1"
           id="ellipse4420"
           cx="522.50787"
           cy="297.34274"
           rx="2.4958277"
           ry="2.4761112" />
        <ellipse
           ry="2.4839237"
           rx="2.498925"
           cy="264.88077"
           cx="554.96924"
           id="ellipse4422"
           style="opacity:1;fill:#ffffff;fill-opacity:1;stroke:none;stroke-width:1;stroke-linejoin:miter;stroke-miterlimit:4;stroke-dasharray:none;stroke-opacity:1" />
      </g>
      <g
         id="g4424"
         transform="matrix(0,-1,1,0,332.65586,982.42618)">
        <path
           style="opacity:1;fill:#ffffff;fill-opacity:1;stroke:none;stroke-width:1;stroke-linejoin:miter;stroke-miterlimit:4;stroke-dasharray:none;stroke-opacity:1"
           d="m 524.01953,262.39844 c -2.21953,0 -4.00586,1.78778 -4.00586,4.00781 l 0,30.95508 4.98633,0 0,-28.03125 c 0,-1.09057 0.89116,-1.96875 1.99805,-1.96875 l 28.00195,0 0,-4.96289 -30.98047,0 z"
           id="path4426"
           inkscape:connector-curvature="0" />
        <ellipse
           ry="2.4761112"
           rx="2.4958277"
           cy="297.34274"
           cx="522.50787"
           id="ellipse4428"
           style="opacity:1;fill:#ffffff;fill-opacity:1;stroke:none;stroke-width:1;stroke-linejoin:miter;stroke-miterlimit:4;stroke-dasharray:none;stroke-opacity:1" />
        <ellipse
           style="opacity:1;fill:#ffffff;fill-opacity:1;stroke:none;stroke-width:1;stroke-linejoin:miter;stroke-miterlimit:4;stroke-dasharray:none;stroke-opacity:1"
           id="ellipse4430"
           cx="554.96924"
           cy="264.88077"
           rx="2.498925"
           ry="2.4839237" />
      </g>
      <g
         transform="matrix(-1,0,0,-1,1105.0134,724.70367)"
         id="g4432">
        <path
           inkscape:connector-curvature="0"
           id="path4434"
           d="m 524.01953,262.39844 c -2.21953,0 -4.00586,1.78778 -4.00586,4.00781 l 0,30.95508 4.98633,0 0,-28.03125 c 0,-1.09057 0.89116,-1.96875 1.99805,-1.96875 l 28.00195,0 0,-4.96289 -30.98047,0 z"
           style="opacity:1;fill:#ffffff;fill-opacity:1;stroke:none;stroke-width:1;stroke-linejoin:miter;stroke-miterlimit:4;stroke-dasharray:none;stroke-opacity:1" />
        <ellipse
           style="opacity:1;fill:#ffffff;fill-opacity:1;stroke:none;stroke-width:1;stroke-linejoin:miter;stroke-miterlimit:4;stroke-dasharray:none;stroke-opacity:1"
           id="ellipse4436"
           cx="522.50787"
           cy="297.34274"
           rx="2.4958277"
           ry="2.4761112" />
        <ellipse
           ry="2.4839237"
           rx="2.498925"
           cy="264.88077"
           cx="554.96924"
           id="ellipse4438"
           style="opacity:1;fill:#ffffff;fill-opacity:1;stroke:none;stroke-width:1;stroke-linejoin:miter;stroke-miterlimit:4;stroke-dasharray:none;stroke-opacity:1" />
      </g>
      <g
         id="g4440"
         transform="matrix(0,1,-1,0,847.47448,-47.557727)">
        <path
           style="opacity:1;fill:#ffffff;fill-opacity:1;stroke:none;stroke-width:1;stroke-linejoin:miter;stroke-miterlimit:4;stroke-dasharray:none;stroke-opacity:1"
           d="m 524.01953,262.39844 c -2.21953,0 -4.00586,1.78778 -4.00586,4.00781 l 0,30.95508 4.98633,0 0,-28.03125 c 0,-1.09057 0.89116,-1.96875 1.99805,-1.96875 l 28.00195,0 0,-4.96289 -30.98047,0 z"
           id="path4442"
           inkscape:connector-curvature="0" />
        <ellipse
           ry="2.4761112"
           rx="2.4958277"
           cy="297.34274"
           cx="522.50787"
           id="ellipse4444"
           style="opacity:1;fill:#ffffff;fill-opacity:1;stroke:none;stroke-width:1;stroke-linejoin:miter;stroke-miterlimit:4;stroke-dasharray:none;stroke-opacity:1" />
        <ellipse
           style="opacity:1;fill:#ffffff;fill-opacity:1;stroke:none;stroke-width:1;stroke-linejoin:miter;stroke-miterlimit:4;stroke-dasharray:none;stroke-opacity:1"
           id="ellipse4446"
           cx="554.96924"
           cy="264.88077"
           rx="2.498925"
           ry="2.4839237" />
      </g>
    </g>
    <flowRoot
       xml:space="preserve"
       id="flowRoot4514"
       style="fill:black;stroke:none;stroke-opacity:1;stroke-width:1px;stroke-linejoin:miter;stroke-linecap:butt;fill-opacity:1;font-family:sans-serif;font-style:normal;font-weight:normal;font-size:40px;line-height:125%;letter-spacing:0px;word-spacing:0px"><flowRegion
         id="flowRegion4516"><rect
           id="rect4518"
           width="200"
           height="120"
           x="220"
           y="512.36218" /></flowRegion><flowPara
         id="flowPara4520" /></flowRoot>    <flowRoot
       xml:space="preserve"
       id="flowRoot4554"
       style="fill:black;stroke:none;stroke-opacity:1;stroke-width:1px;stroke-linejoin:miter;stroke-linecap:butt;fill-opacity:1;font-family:sans-serif;font-style:normal;font-weight:normal;font-size:40px;line-height:125%;letter-spacing:0px;word-spacing:0px"><flowRegion
         id="flowRegion4556"><rect
           id="rect4558"
           width="340"
           height="80"
           x="380"
           y="12.362205" /></flowRegion><flowPara
         id="flowPara4560" /></flowRoot>    <circle
       r="60.743263"
       cy="537.0976"
       cx="103.98411"
       id="circle4157"
       style="opacity:1;fill:#00adee;fill-opacity:1;stroke:none;stroke-width:1;stroke-linejoin:miter;stroke-miterlimit:4;stroke-dasharray:none;stroke-opacity:1" />
    <path
       style="opacity:1;fill:#ffffff;fill-opacity:1;stroke:none;stroke-width:1;stroke-linejoin:miter;stroke-miterlimit:4;stroke-dasharray:none;stroke-opacity:1"
       d="m 104.48906,496.48828 -31.082027,27.66992 -19.123047,0 0,26.03321 18.990234,0 31.21484,27.78711 0,-81.49024 z"
       id="circle4257"
       inkscape:connector-curvature="0" />
    <g
       id="g6538">
      <path
         id="circle6437"
         d="m 139.49609,497.91211 -5.48632,5.48633 a 45.186913,45.186913 0 0 1 15.16211,33.69922 45.186913,45.186913 0 0 1 -15.4961,33.9375 l 5.51953,5.51953 a 52.965088,52.965088 0 0 0 17.75391,-39.45703 52.965088,52.965088 0 0 0 -17.45313,-39.18555 z"
         style="opacity:1;fill:#ffffff;fill-opacity:1;stroke:none;stroke-width:1;stroke-linejoin:miter;stroke-miterlimit:4;stroke-dasharray:none;stroke-opacity:1"
         inkscape:connector-curvature="0" />
      <path
         id="circle6441"
         d="m 128.22852,509.17969 -5.73047,5.73047 a 28.923456,28.923456 0 0 1 10.41015,22.1875 28.923456,28.923456 0 0 1 -10.73437,22.43554 l 5.76367,5.76368 a 37.055183,37.055183 0 0 0 13.10156,-28.19922 37.055183,37.055183 0 0 0 -12.81054,-27.91797 z"
         style="opacity:1;fill:#ffffff;fill-opacity:1;stroke:none;stroke-width:1;stroke-linejoin:miter;stroke-miterlimit:4;stroke-dasharray:none;stroke-opacity:1"
         inkscape:connector-curvature="0" />
      <path
         id="circle6445"
         d="m 116.47266,520.93555 -5.07227,5.07226 a 13.367107,13.367107 0 0 1 5.95117,11.08985 13.367107,13.367107 0 0 1 -6.28711,11.32617 l 5.0625,5.0625 a 20.438175,20.438175 0 0 0 8.29493,-16.38867 20.438175,20.438175 0 0 0 -7.94922,-16.16211 z"
         style="opacity:1;fill:#ffffff;fill-opacity:1;stroke:none;stroke-width:1;stroke-linejoin:miter;stroke-miterlimit:4;stroke-dasharray:none;stroke-opacity:1"
         inkscape:connector-curvature="0" />
    </g>
    <path
       style="opacity:1;fill:#ffffff;fill-opacity:1;stroke:none;stroke-width:1;stroke-linejoin:miter;stroke-miterlimit:4;stroke-dasharray:none;stroke-opacity:1"
       d="M 124.98828 644.48828 L 95.251953 670.95898 L 124.98828 688.12695 L 124.98828 644.48828 z M 124.98828 688.12695 L 124.98828 699.67578 L 147.29102 712.55273 C 149.01146 709.93819 150.55057 707.19046 151.7832 704.27539 C 151.86013 704.09348 151.91338 703.89976 151.98828 703.7168 L 124.98828 688.12695 z M 124.98828 699.67578 L 77.328125 672.1582 L 74.783203 672.1582 L 74.783203 698.19141 L 93.773438 698.19141 L 124.98828 725.97852 L 124.98828 699.67578 z M 77.328125 672.1582 L 93.90625 672.1582 L 95.251953 670.95898 L 62.949219 652.30859 C 62.24436 653.21622 61.40436 654.00871 60.759766 654.96289 C 59.530876 656.78199 58.602179 658.79828 57.607422 660.77148 L 77.328125 672.1582 z "
       id="path6581" />
  </g>
</svg>
